<?xml version="1.0" encoding="UTF-8" standalone="no"?>
<svg
   xmlns:dc="http://purl.org/dc/elements/1.1/"
   xmlns:cc="http://creativecommons.org/ns#"
   xmlns:rdf="http://www.w3.org/1999/02/22-rdf-syntax-ns#"
   xmlns:svg="http://www.w3.org/2000/svg"
   xmlns="http://www.w3.org/2000/svg"
   xmlns:sodipodi="http://sodipodi.sourceforge.net/DTD/sodipodi-0.dtd"
   xmlns:inkscape="http://www.inkscape.org/namespaces/inkscape"
   inkscape:version="1.0 (4035a4fb49, 2020-05-01)"
   sodipodi:docname="fi-rr-align-right.svg"
   version="1.1"
   viewBox="0 0 24 24"
   id="Outline">
  <metadata
     id="metadata17">
    <rdf:RDF>
      <cc:Work
         rdf:about="">
        <dc:format>image/svg+xml</dc:format>
        <dc:type
           rdf:resource="http://purl.org/dc/dcmitype/StillImage" />
      </cc:Work>
    </rdf:RDF>
  </metadata>
  <defs
     id="defs15" />
  <sodipodi:namedview
     inkscape:current-layer="Outline"
     inkscape:window-maximized="1"
     inkscape:window-y="-8"
     inkscape:window-x="-8"
     inkscape:cy="12"
     inkscape:cx="12"
     inkscape:zoom="23.157051"
     showgrid="false"
     id="namedview13"
     inkscape:window-height="745"
     inkscape:window-width="1366"
     inkscape:pageshadow="2"
     inkscape:pageopacity="0"
     guidetolerance="10"
     gridtolerance="10"
     objecttolerance="10"
     borderopacity="1"
     bordercolor="#666666"
     pagecolor="#ffffff" />
  <title
     id="title2">03 align right</title>
  <path
     style="fill:#ffab4f;fill-opacity:1"
     id="path4"
     d="M 1.0429594,6 H 23.042959 a 1,1 0 0 0 0,-2 H 1.0429594 a 1,1 0 0 0 0,2 z" />
  <path
     style="fill:#ffab4f;fill-opacity:1"
     id="path10"
     d="M 23.042959,13.471558 H 1.0429594 a 1,1 0 0 0 0,2 H 23.042959 a 1,1 0 0 0 0,-2 z" />
  <path
     style="fill:#ffab4f;fill-opacity:1"
     d="M 1.0429596,10.735779 H 23.042959 a 1.0000001,1.0000001 0 0 0 0,-2 H 1.0429596 a 1.0000001,1.0000001 0 0 0 0,2 z"
     id="path842" />
  <path
     style="fill:#ffab4f;fill-opacity:1"
     id="path844"
     d="M 1.0429598,20.207336 H 23.042959 a 1.0000001,1.0000001 0 0 0 0,-2 H 1.0429598 a 1.0000001,1.0000001 0 0 0 0,2 z" />
</svg>
